<svg width="20" height="20" viewBox="0 0 20 20" fill="none" xmlns="http://www.w3.org/2000/svg">
<mask id="path-1-outside-1_1_2" maskUnits="userSpaceOnUse" x="2" y="0" width="14" height="19" fill="black">
<rect fill="white" x="2" width="14" height="19"/>
<path fill-rule="evenodd" clip-rule="evenodd" d="M4 1.5H13.7C13.9761 1.5 14.2 1.72386 14.2 2V16.9C14.2 17.1761 13.9761 17.4 13.7 17.4H7.17059L6.67059 17.9H13.7C14.2523 17.9 14.7 17.4523 14.7 16.9V2C14.7 1.44772 14.2523 1 13.7 1H4C3.44772 1 3 1.44771 3 2V7.35115C3.13253 7.32072 3.26907 7.30501 3.40723 7.30501L3.5 7.30501V2C3.5 1.72386 3.72386 1.5 4 1.5ZM10.8 15.15H7.87727V14.15H10.8C11.0761 14.15 11.3 14.3739 11.3 14.65C11.3 14.9261 11.0761 15.15 10.8 15.15ZM12.1 12.55H7.87727V11.55H12.1C12.3761 11.55 12.6 11.7739 12.6 12.05C12.6 12.3261 12.3761 12.55 12.1 12.55ZM12.1 9.95H7.87727L7.87727 9.12503C7.87727 9.06599 7.87446 9.0076 7.86896 8.95H12.1C12.3761 8.95 12.6 9.17386 12.6 9.45C12.6 9.72614 12.3761 9.95 12.1 9.95ZM12.1 7.35H6.46116C6.33126 7.32057 6.19609 7.30503 6.05728 7.30503L5.39245 7.30502C5.2199 7.22619 5.1 7.0521 5.1 6.85C5.1 6.57386 5.32386 6.35 5.6 6.35H12.1C12.3761 6.35 12.6 6.57386 12.6 6.85C12.6 7.12614 12.3761 7.35 12.1 7.35ZM5.6 3.75C5.32386 3.75 5.1 3.97386 5.1 4.25C5.1 4.52614 5.32386 4.75 5.6 4.75H12.1C12.3761 4.75 12.6 4.52614 12.6 4.25C12.6 3.97386 12.3761 3.75 12.1 3.75H5.6ZM3.40722 8.95501C3.36214 8.95501 3.3189 8.97292 3.28702 9.0048C3.25513 9.03669 3.23722 9.07993 3.23722 9.12501L3.23723 10.6393L3.23722 15.7826C3.23721 15.9281 3.29503 16.0677 3.3979 16.1705L4.61203 17.3847C4.67842 17.4511 4.78606 17.4511 4.85245 17.3847L6.0666 16.1705C6.16945 16.0677 6.22729 15.9282 6.22727 15.7826L6.22727 15.7826L6.22727 10.6393L6.22727 9.12503C6.22727 9.03114 6.15116 8.95503 6.05727 8.95503L3.40722 8.95501ZM3.57723 10.4693L3.57723 9.29501L5.88727 9.29503L5.88727 10.4693L3.57723 10.4693ZM3.57723 10.8093L5.88727 10.8093L5.88727 15.7826V15.7827C5.88728 15.838 5.86531 15.891 5.82618 15.9301L4.73224 17.0241L3.63831 15.9301C3.59919 15.891 3.57722 15.838 3.57722 15.7827L3.57722 15.7826L3.57723 10.8093Z"/>
</mask>
<path fill-rule="evenodd" clip-rule="evenodd" d="M4 1.5H13.7C13.9761 1.5 14.2 1.72386 14.2 2V16.9C14.2 17.1761 13.9761 17.4 13.7 17.4H7.17059L6.67059 17.9H13.7C14.2523 17.9 14.7 17.4523 14.7 16.9V2C14.7 1.44772 14.2523 1 13.7 1H4C3.44772 1 3 1.44771 3 2V7.35115C3.13253 7.32072 3.26907 7.30501 3.40723 7.30501L3.5 7.30501V2C3.5 1.72386 3.72386 1.5 4 1.5ZM10.8 15.15H7.87727V14.15H10.8C11.0761 14.15 11.3 14.3739 11.3 14.65C11.3 14.9261 11.0761 15.15 10.8 15.15ZM12.1 12.55H7.87727V11.55H12.1C12.3761 11.55 12.6 11.7739 12.6 12.05C12.6 12.3261 12.3761 12.55 12.1 12.55ZM12.1 9.95H7.87727L7.87727 9.12503C7.87727 9.06599 7.87446 9.0076 7.86896 8.95H12.1C12.3761 8.95 12.6 9.17386 12.6 9.45C12.6 9.72614 12.3761 9.95 12.1 9.95ZM12.1 7.35H6.46116C6.33126 7.32057 6.19609 7.30503 6.05728 7.30503L5.39245 7.30502C5.2199 7.22619 5.1 7.0521 5.1 6.85C5.1 6.57386 5.32386 6.35 5.6 6.35H12.1C12.3761 6.35 12.6 6.57386 12.6 6.85C12.6 7.12614 12.3761 7.35 12.1 7.35ZM5.6 3.75C5.32386 3.75 5.1 3.97386 5.1 4.25C5.1 4.52614 5.32386 4.75 5.6 4.75H12.1C12.3761 4.75 12.6 4.52614 12.6 4.25C12.6 3.97386 12.3761 3.75 12.1 3.75H5.6ZM3.40722 8.95501C3.36214 8.95501 3.3189 8.97292 3.28702 9.0048C3.25513 9.03669 3.23722 9.07993 3.23722 9.12501L3.23723 10.6393L3.23722 15.7826C3.23721 15.9281 3.29503 16.0677 3.3979 16.1705L4.61203 17.3847C4.67842 17.4511 4.78606 17.4511 4.85245 17.3847L6.0666 16.1705C6.16945 16.0677 6.22729 15.9282 6.22727 15.7826L6.22727 15.7826L6.22727 10.6393L6.22727 9.12503C6.22727 9.03114 6.15116 8.95503 6.05727 8.95503L3.40722 8.95501ZM3.57723 10.4693L3.57723 9.29501L5.88727 9.29503L5.88727 10.4693L3.57723 10.4693ZM3.57723 10.8093L5.88727 10.8093L5.88727 15.7826V15.7827C5.88728 15.838 5.86531 15.891 5.82618 15.9301L4.73224 17.0241L3.63831 15.9301C3.59919 15.891 3.57722 15.838 3.57722 15.7827L3.57722 15.7826L3.57723 10.8093Z" fill="white"/>
<path d="M7.17059 17.4V16.8C7.01146 16.8 6.85885 16.8632 6.74633 16.9757L7.17059 17.4ZM6.67059 17.9L6.24633 17.4757C6.07473 17.6473 6.02339 17.9054 6.11626 18.1296C6.20913 18.3538 6.42791 18.5 6.67059 18.5V17.9ZM3 7.35115H2.4C2.4 7.53388 2.48327 7.70665 2.62621 7.82049C2.76914 7.93433 2.95617 7.97682 3.13426 7.93594L3 7.35115ZM3.40723 7.30501L3.40723 7.90501H3.40723L3.40723 7.30501ZM3.5 7.30501L3.5 7.90501C3.65913 7.90501 3.81174 7.8418 3.92426 7.72928C4.03679 7.61676 4.1 7.46414 4.1 7.30501H3.5ZM7.87727 15.15H7.27727C7.27727 15.4814 7.5459 15.75 7.87727 15.75V15.15ZM7.87727 14.15V13.55C7.5459 13.55 7.27727 13.8186 7.27727 14.15H7.87727ZM7.87727 12.55H7.27727C7.27727 12.8814 7.5459 13.15 7.87727 13.15V12.55ZM7.87727 11.55V10.95C7.5459 10.95 7.27727 11.2186 7.27727 11.55H7.87727ZM7.87727 9.95L7.27727 9.95C7.27727 10.1091 7.34048 10.2617 7.45301 10.3743C7.56553 10.4868 7.71814 10.55 7.87727 10.55V9.95ZM7.87727 9.12503L8.47727 9.12503V9.12503H7.87727ZM7.86896 8.95V8.35C7.69992 8.35 7.53872 8.42131 7.42501 8.54639C7.3113 8.67147 7.25562 8.83871 7.27168 9.00699L7.86896 8.95ZM6.46116 7.35L6.32857 7.93517C6.37208 7.94502 6.41655 7.95 6.46116 7.95V7.35ZM6.05728 7.30503L6.05729 6.70503H6.05728L6.05728 7.30503ZM5.39245 7.30502L5.14312 7.85077C5.22138 7.88652 5.30641 7.90502 5.39245 7.90502L5.39245 7.30502ZM3.28702 9.0048L2.86275 8.58054L2.86275 8.58054L3.28702 9.0048ZM3.40722 8.95501L3.40722 9.55501H3.40722L3.40722 8.95501ZM3.23722 9.12501L2.63722 9.12502V9.12502L3.23722 9.12501ZM3.23723 10.6393L3.83723 10.6393V10.6393L3.23723 10.6393ZM3.23722 15.7826L3.83722 15.7827V15.7826L3.23722 15.7826ZM3.3979 16.1705L3.82216 15.7463L3.82216 15.7463L3.3979 16.1705ZM4.61203 17.3847L4.18777 17.809H4.18777L4.61203 17.3847ZM4.85245 17.3847L5.27671 17.809H5.27671L4.85245 17.3847ZM6.0666 16.1705L6.49086 16.5948H6.49086L6.0666 16.1705ZM6.22727 15.7826L6.82729 15.7826L6.82725 15.7775L6.22727 15.7826ZM6.22727 15.7826H5.62725L5.62729 15.7878L6.22727 15.7826ZM6.22727 10.6393L5.62727 10.6393L5.62727 10.6393H6.22727ZM6.22727 9.12503L5.62727 9.12502V9.12503L6.22727 9.12503ZM6.05727 8.95503L6.05728 8.35503L6.05727 8.95503ZM3.57723 9.29501L3.57723 8.69501C3.4181 8.69501 3.26548 8.75823 3.15296 8.87075C3.04044 8.98327 2.97722 9.13589 2.97723 9.29502L3.57723 9.29501ZM3.57723 10.4693L2.97723 10.4693C2.97723 10.8007 3.24586 11.0693 3.57723 11.0693L3.57723 10.4693ZM5.88727 9.29503L6.48727 9.29503C6.48727 8.96366 6.21864 8.69503 5.88727 8.69503L5.88727 9.29503ZM5.88727 10.4693L5.88727 11.0693C6.21864 11.0693 6.48727 10.8007 6.48727 10.4693L5.88727 10.4693ZM5.88727 10.8093H6.48727C6.48727 10.478 6.21864 10.2093 5.88727 10.2093L5.88727 10.8093ZM3.57723 10.8093L3.57723 10.2093C3.24586 10.2093 2.97723 10.478 2.97723 10.8093L3.57723 10.8093ZM5.88727 15.7826H6.48727H6.48727H5.88727ZM5.88727 15.7827H5.28727L5.28727 15.7828L5.88727 15.7827ZM5.82618 15.9301L5.40191 15.5059L5.82618 15.9301ZM4.73224 17.0241L4.30798 17.4483C4.4205 17.5608 4.57311 17.6241 4.73224 17.6241C4.89137 17.6241 5.04398 17.5608 5.15651 17.4483L4.73224 17.0241ZM3.63831 15.9301L4.06258 15.5059L4.06258 15.5059L3.63831 15.9301ZM3.57722 15.7827L4.17725 15.7827L4.1772 15.7773L3.57722 15.7827ZM3.57722 15.7826L2.9772 15.7826L2.97725 15.788L3.57722 15.7826ZM13.7 0.9H4V2.1H13.7V0.9ZM14.8 2C14.8 1.39249 14.3075 0.9 13.7 0.9V2.1C13.6448 2.1 13.6 2.05523 13.6 2H14.8ZM14.8 16.9V2H13.6V16.9H14.8ZM13.7 18C14.3075 18 14.8 17.5075 14.8 16.9H13.6C13.6 16.8448 13.6448 16.8 13.7 16.8V18ZM7.17059 18H13.7V16.8H7.17059V18ZM7.09485 18.3243L7.59485 17.8243L6.74633 16.9757L6.24633 17.4757L7.09485 18.3243ZM13.7 17.3H6.67059V18.5H13.7V17.3ZM14.1 16.9C14.1 17.1209 13.9209 17.3 13.7 17.3V18.5C14.5837 18.5 15.3 17.7837 15.3 16.9H14.1ZM14.1 2V16.9H15.3V2H14.1ZM13.7 1.6C13.9209 1.6 14.1 1.77909 14.1 2H15.3C15.3 1.11634 14.5837 0.4 13.7 0.4V1.6ZM4 1.6H13.7V0.4H4V1.6ZM3.6 2C3.6 1.77909 3.77908 1.6 4 1.6V0.4C3.11635 0.4 2.4 1.11634 2.4 2H3.6ZM3.6 7.35115V2H2.4V7.35115H3.6ZM3.40724 6.70501C3.22356 6.70501 3.04199 6.7259 2.86574 6.76636L3.13426 7.93594C3.22308 7.91554 3.31458 7.90501 3.40723 7.90501L3.40724 6.70501ZM3.5 6.70501L3.40724 6.70501L3.40723 7.90501L3.5 7.90501L3.5 6.70501ZM2.9 2V7.30501H4.1V2H2.9ZM4 0.9C3.39249 0.9 2.9 1.39249 2.9 2H4.1C4.1 2.05523 4.05523 2.1 4 2.1V0.9ZM7.87727 15.75H10.8V14.55H7.87727V15.75ZM7.27727 14.15V15.15H8.47727V14.15H7.27727ZM10.8 13.55H7.87727V14.75H10.8V13.55ZM11.9 14.65C11.9 14.0425 11.4075 13.55 10.8 13.55V14.75C10.7448 14.75 10.7 14.7052 10.7 14.65H11.9ZM10.8 15.75C11.4075 15.75 11.9 15.2575 11.9 14.65H10.7C10.7 14.5948 10.7448 14.55 10.8 14.55V15.75ZM7.87727 13.15H12.1V11.95H7.87727V13.15ZM7.27727 11.55V12.55H8.47727V11.55H7.27727ZM12.1 10.95H7.87727V12.15H12.1V10.95ZM13.2 12.05C13.2 11.4425 12.7075 10.95 12.1 10.95V12.15C12.0448 12.15 12 12.1052 12 12.05H13.2ZM12.1 13.15C12.7075 13.15 13.2 12.6575 13.2 12.05H12C12 11.9948 12.0448 11.95 12.1 11.95V13.15ZM7.87727 10.55H12.1V9.35H7.87727V10.55ZM7.27727 9.12503L7.27727 9.95L8.47727 9.95L8.47727 9.12503L7.27727 9.12503ZM7.27168 9.00699C7.27537 9.04568 7.27727 9.08505 7.27727 9.12503H8.47727C8.47727 9.04693 8.47355 8.96953 8.46625 8.89301L7.27168 9.00699ZM12.1 8.35H7.86896V9.55H12.1V8.35ZM13.2 9.45C13.2 8.84249 12.7075 8.35 12.1 8.35V9.55C12.0448 9.55 12 9.50523 12 9.45H13.2ZM12.1 10.55C12.7075 10.55 13.2 10.0575 13.2 9.45H12C12 9.39477 12.0448 9.35 12.1 9.35V10.55ZM6.46116 7.95H12.1V6.75H6.46116V7.95ZM6.05728 7.90503C6.15117 7.90503 6.24188 7.91552 6.32857 7.93517L6.59375 6.76483C6.42064 6.72561 6.241 6.70503 6.05729 6.70503L6.05728 7.90503ZM5.39245 7.90502L6.05728 7.90503L6.05728 6.70503L5.39246 6.70502L5.39245 7.90502ZM4.5 6.85C4.5 7.29553 4.76485 7.67795 5.14312 7.85077L5.64178 6.75928C5.67496 6.77444 5.7 6.80866 5.7 6.85H4.5ZM5.6 5.75C4.99249 5.75 4.5 6.24249 4.5 6.85H5.7C5.7 6.90523 5.65523 6.95 5.6 6.95V5.75ZM12.1 5.75H5.6V6.95H12.1V5.75ZM13.2 6.85C13.2 6.24249 12.7075 5.75 12.1 5.75V6.95C12.0448 6.95 12 6.90523 12 6.85H13.2ZM12.1 7.95C12.7075 7.95 13.2 7.45751 13.2 6.85H12C12 6.79477 12.0448 6.75 12.1 6.75V7.95ZM5.7 4.25C5.7 4.30523 5.65523 4.35 5.6 4.35V3.15C4.99249 3.15 4.5 3.64249 4.5 4.25H5.7ZM5.6 4.15C5.65523 4.15 5.7 4.19477 5.7 4.25H4.5C4.5 4.85751 4.99249 5.35 5.6 5.35V4.15ZM12.1 4.15H5.6V5.35H12.1V4.15ZM12 4.25C12 4.19477 12.0448 4.15 12.1 4.15V5.35C12.7075 5.35 13.2 4.85751 13.2 4.25H12ZM12.1 4.35C12.0448 4.35 12 4.30523 12 4.25H13.2C13.2 3.64249 12.7075 3.15 12.1 3.15V4.35ZM5.6 4.35H12.1V3.15H5.6V4.35ZM3.71128 9.42907C3.63064 9.50971 3.52126 9.55501 3.40722 9.55501L3.40723 8.35501C3.20301 8.35501 3.00716 8.43614 2.86275 8.58054L3.71128 9.42907ZM3.83722 9.12501C3.83722 9.23905 3.79192 9.34843 3.71128 9.42907L2.86275 8.58054C2.71835 8.72495 2.63722 8.9208 2.63722 9.12502L3.83722 9.12501ZM3.83723 10.6393L3.83722 9.12501L2.63722 9.12502L2.63723 10.6393L3.83723 10.6393ZM3.83722 15.7826L3.83723 10.6393L2.63723 10.6393L2.63722 15.7826L3.83722 15.7826ZM3.82216 15.7463C3.83179 15.7559 3.83722 15.769 3.83722 15.7827L2.63722 15.7826C2.6372 16.0873 2.75826 16.3794 2.97363 16.5948L3.82216 15.7463ZM5.0363 16.9604L3.82216 15.7463L2.97363 16.5948L4.18777 17.809L5.0363 16.9604ZM4.42819 16.9604C4.59611 16.7925 4.86837 16.7925 5.0363 16.9604L4.18777 17.809C4.48847 18.1097 4.97601 18.1097 5.27671 17.809L4.42819 16.9604ZM5.64233 15.7463L4.42819 16.9604L5.27671 17.809L6.49086 16.5948L5.64233 15.7463ZM5.62727 15.7827C5.62727 15.769 5.63273 15.7559 5.64233 15.7463L6.49086 16.5948C6.70618 16.3795 6.8273 16.0874 6.82727 15.7826L5.62727 15.7827ZM5.62729 15.7878L5.62729 15.7878L6.82725 15.7775L6.82725 15.7774L5.62729 15.7878ZM5.62727 10.6393L5.62727 15.7826H6.82727L6.82727 10.6393H5.62727ZM5.62727 9.12503L5.62727 10.6393L6.82727 10.6393L6.82727 9.12503L5.62727 9.12503ZM6.05727 9.55503C5.81979 9.55503 5.62727 9.36251 5.62727 9.12502L6.82727 9.12503C6.82727 8.69977 6.48253 8.35503 6.05728 8.35503L6.05727 9.55503ZM3.40722 9.55501L6.05727 9.55503L6.05728 8.35503L3.40723 8.35501L3.40722 9.55501ZM2.97723 9.29502L2.97723 10.4693L4.17723 10.4693L4.17723 9.29501L2.97723 9.29502ZM5.88727 8.69503L3.57723 8.69501L3.57722 9.89501L5.88727 9.89503L5.88727 8.69503ZM6.48727 10.4693L6.48727 9.29503L5.28727 9.29502L5.28727 10.4693L6.48727 10.4693ZM3.57723 11.0693L5.88727 11.0693L5.88727 9.86933L3.57723 9.86933L3.57723 11.0693ZM5.88727 10.2093L3.57723 10.2093L3.57723 11.4093L5.88727 11.4093L5.88727 10.2093ZM6.48727 15.7826L6.48727 10.8093H5.28727L5.28727 15.7826H6.48727ZM6.48727 15.7827V15.7826H5.28727V15.7827H6.48727ZM6.25044 16.3544C6.40205 16.2028 6.4873 15.9971 6.48727 15.7826L5.28727 15.7828C5.28725 15.6788 5.32857 15.5792 5.40191 15.5059L6.25044 16.3544ZM5.15651 17.4483L6.25044 16.3544L5.40191 15.5059L4.30798 16.5998L5.15651 17.4483ZM3.21405 16.3544L4.30798 17.4483L5.15651 16.5998L4.06258 15.5059L3.21405 16.3544ZM2.97722 15.7826C2.9772 15.9971 3.06243 16.2028 3.21405 16.3544L4.06258 15.5059C4.13596 15.5793 4.17723 15.6788 4.17722 15.7827L2.97722 15.7826ZM2.97725 15.788L2.97725 15.788L4.1772 15.7773L4.1772 15.7773L2.97725 15.788ZM2.97723 10.8093L2.97722 15.7826L4.17722 15.7826L4.17723 10.8093L2.97723 10.8093Z" fill="white" mask="url(#path-1-outside-1_1_2)"/>
</svg>
